<?xml version="1.0" encoding="utf-8"?>
<!-- Generator: Adobe Illustrator 24.0.1, SVG Export Plug-In . SVG Version: 6.00 Build 0)  -->
<svg version="1.1" id="Layer_1" xmlns="http://www.w3.org/2000/svg" xmlns:xlink="http://www.w3.org/1999/xlink" x="0px" y="0px"
	 viewBox="0 0 29.6 29.6" style="enable-background:new 0 0 29.6 29.6;" xml:space="preserve">
<style type="text/css">
	.st0{fill:#EC008C;}
</style>
<path class="st0" d="M14.8,9.5c-2.9,0-5.3,2.4-5.3,5.3c0,2.9,2.4,5.3,5.3,5.3c2.9,0,5.3-2.4,5.3-5.3C20.1,11.9,17.7,9.5,14.8,9.5z
	 M27.4,13.4C26.8,7.5,22.1,2.8,16.2,2.2V0h-2.8v2.2C7.5,2.8,2.8,7.5,2.2,13.4H0v2.8h2.2c0.6,5.9,5.4,10.6,11.2,11.2v2.2h2.8v-2.2
	c5.9-0.6,10.6-5.4,11.2-11.2h2.2v-2.8H27.4z M14.8,24.7c-5.4,0-9.9-4.4-9.9-9.9c0-5.4,4.4-9.9,9.9-9.9c5.4,0,9.9,4.4,9.9,9.9
	S20.2,24.7,14.8,24.7z"/>
</svg>
