<?xml version="1.0" encoding="utf-8"?>
<!-- Generator: Adobe Illustrator 24.0.1, SVG Export Plug-In . SVG Version: 6.00 Build 0)  -->
<svg version="1.1" xmlns="http://www.w3.org/2000/svg" xmlns:xlink="http://www.w3.org/1999/xlink" x="0px" y="0px"
	 viewBox="0 0 56.7 60.7" style="enable-background:new 0 0 56.7 60.7;" xml:space="preserve">
<style type="text/css">
	.st0{fill:#E6E7E8;}
	.st1{fill:#00AEEF;}
	.st2{font-family:'Bauhaus93';}
	.st3{font-size:54.8405px;}
	.st4{font-size:57.5853px;}
</style>
<g id="Layer_2">
	<path class="st0" d="M37.4,33.5l6.1-9.3l-1.1-0.9L34,30.4c-1.6-0.3-3.3,0.2-4.4,1.4c-1.7,1.9-1.5,4.8,0.4,6.5
		c1.9,1.7,4.8,1.5,6.5-0.4C37.6,36.7,37.9,35,37.4,33.5z M28.4,8.8V2.5h9.3v6.2C34.3,8.2,31.6,8.2,28.4,8.8z M48.9,13.6l3.3-3.3
		l3.3,3.3l-3.1,3.1C51.3,15.5,50.1,14.5,48.9,13.6z M5.2,23.4h18.6v4.6H5.2V23.4z M0.5,32.7h18.6v4.6H0.5V32.7z M7.5,42h16.2v4.6
		H7.5V42z M56.2,35c0,12.8-10.4,23.2-23.2,23.2c-6.5,0-12.3-2.7-16.5-7h7.6c2.6,1.5,5.7,2.3,8.9,2.3c10.2,0,18.6-8.3,18.6-18.6
		S43.2,16.5,33,16.5c-3.2,0-6.2,0.9-8.9,2.3h-7.6c4.2-4.3,10-7,16.5-7C45.8,11.8,56.2,22.2,56.2,35z"/>
</g>
<g id="Layer_3">
	<text transform="matrix(1 0 0 1 13.3661 59.6851)" class="st1 st2 st3">K</text>
</g>
<g id="Layer_1">
	<text transform="matrix(1 0 0 1 7.1911 51.6847)" class="st2 st4">T</text>
	<rect x="16.3" y="51.7" width="11.3" height="8"/>
</g>
</svg>
