<?xml version="1.0" encoding="utf-8"?>
<!-- Generator: Adobe Illustrator 24.0.1, SVG Export Plug-In . SVG Version: 6.00 Build 0)  -->
<svg version="1.1" id="Layer_1" xmlns="http://www.w3.org/2000/svg" xmlns:xlink="http://www.w3.org/1999/xlink" x="0px" y="0px"
	 viewBox="0 0 25.8 26.4" style="enable-background:new 0 0 25.8 26.4;" xml:space="preserve">
<style type="text/css">
	.st0{fill:#FFFFFF;}
</style>
<path class="st0" d="M16.7,14.9l2.6-4l-0.5-0.4l-3.7,3.1c-0.7-0.1-1.4,0.1-1.9,0.6c-0.7,0.8-0.7,2.1,0.2,2.8
	c0.8,0.7,2.1,0.7,2.8-0.2C16.8,16.3,16.9,15.5,16.7,14.9z M12.8,4.2V1.5h4v2.7C15.4,4,14.2,4,12.8,4.2z M21.7,6.3l1.4-1.4l1.4,1.4
	l-1.3,1.3C22.7,7.1,22.2,6.7,21.7,6.3z M2.8,10.5h8v2h-8V10.5z M0.8,14.5h8v2h-8V14.5z M3.8,18.5h7v2h-7V18.5z M24.8,15.5
	c0,5.5-4.5,10-10,10c-2.8,0-5.3-1.2-7.1-3H11c1.1,0.6,2.4,1,3.8,1c4.4,0,8-3.6,8-8s-3.6-8-8-8c-1.4,0-2.7,0.4-3.8,1H7.7
	c1.8-1.8,4.3-3,7.1-3C20.3,5.5,24.8,10,24.8,15.5z"/>
</svg>
